<?xml version="1.0" encoding="utf-8"?>
<!-- Generator: Adobe Illustrator 23.0.5, SVG Export Plug-In . SVG Version: 6.00 Build 0)  -->
<svg version="1.1" xmlns="http://www.w3.org/2000/svg" xmlns:xlink="http://www.w3.org/1999/xlink" x="0px" y="0px"
	 viewBox="0 0 1200 400" style="enable-background:new 0 0 1200 400;" xml:space="preserve">
<style type="text/css">
	.st0{display:none;}
	.st1{display:inline;opacity:0.4;}
	.st2{display:inline;fill:#436F60;}
	.st3{display:inline;}
	.st4{clip-path:url(#SVGID_2_);fill:#79B3A1;}
	.st5{clip-path:url(#SVGID_2_);fill:#67AB97;}
	.st6{clip-path:url(#SVGID_2_);fill:#5A9582;}
	.st7{fill:#FFFFFF;}
	.st8{font-family:'Raleway-Bold';}
	.st9{font-size:54.5724px;}
	.st10{font-family:'Raleway-Regular';}
	.st11{font-size:19.4895px;}
	.st12{fill:none;}
	.st13{fill:#333333;}
	.st14{font-family:'Raleway-ExtraLight';}
	.st15{font-size:12.4464px;}
	.st16{fill:#79B3A1;}
	.st17{font-size:43.5624px;}
	.st18{font-family:'Raleway-Light';}
	.st19{font-size:22.5009px;}
	.st20{clip-path:url(#SVGID_4_);fill:#855290;}
	.st21{clip-path:url(#SVGID_4_);fill:#78316B;}
	.st22{clip-path:url(#SVGID_4_);fill:#9E2D73;}
	.st23{clip-path:url(#SVGID_4_);fill:#C1408C;}
	.st24{display:inline;fill:#452B4B;}
	.st25{font-size:18.9589px;}
	.st26{fill:#9E2D73;}
	.st27{font-size:56.9491px;}
	.st28{font-size:36.481px;}
	.st29{font-size:61.3945px;}
	.st30{font-size:64.4168px;}
	.st31{font-size:21.9259px;}
	.st32{fill:url(#SVGID_5_);}
	.st33{fill:#A33F4E;}
	.st34{font-size:16.9181px;}
	.st35{fill:#C85957;}
	.st36{font-size:50.819px;}
	.st37{font-size:32.554px;}
	.st38{font-size:54.7858px;}
	.st39{font-size:57.4828px;}
	.st40{font-size:19.5657px;}
	.st41{clip-path:url(#SVGID_7_);fill:#D48248;}
	.st42{clip-path:url(#SVGID_7_);fill:#CC673F;}
	.st43{clip-path:url(#SVGID_7_);fill:#C85957;}
	.st44{clip-path:url(#SVGID_7_);fill:#E5B95A;}
</style>
<g id="Capa_1" class="st0">
	<g class="st1">
		<g>
			<g>
				<g>
				</g>
			</g>
		</g>
	</g>
	<g class="st1">
		<g>
			<g>
				<g>
				</g>
			</g>
		</g>
	</g>
	<polygon class="st2" points="0,400 607.83,400 444.11,-1.62 0,0.58 	"/>
	<g class="st3">
		<defs>
			
				<rect id="SVGID_1_" x="0" y="-1.62" transform="matrix(-1 -1.224647e-16 1.224647e-16 -1 1201.2999 396.5274)" width="1201.3" height="399.77"/>
		</defs>
		<clipPath id="SVGID_2_">
			<use xlink:href="#SVGID_1_"  style="overflow:visible;"/>
		</clipPath>
		<polygon class="st4" points="772.53,363.94 643.18,50.16 578.51,50.16 707.86,363.94 		"/>
		<polygon class="st5" points="722.27,479.98 592.93,166.2 463.58,166.2 592.93,479.98 		"/>
		<polygon class="st5" points="592.93,147 463.58,-166.78 429.86,-166.78 559.21,147 		"/>
		<polygon class="st6" points="501.83,86.46 372.48,-227.32 273.05,-227.32 402.4,86.46 		"/>
		<polygon class="st4" points="1268.97,228.03 1202.88,67.7 1169.84,67.7 1235.93,228.03 		"/>
		<polygon class="st5" points="1243.29,287.31 1177.21,126.99 1111.12,126.99 1177.21,287.31 		"/>
		<polygon class="st5" points="1177.21,117.18 1111.12,-43.14 1093.89,-43.14 1159.98,117.18 		"/>
		<polygon class="st6" points="1130.66,86.25 1064.57,-74.08 1013.77,-74.08 1079.85,86.25 		"/>
	</g>
	<g class="st3">
		<g>
			<g>
			</g>
		</g>
		<g>
			<g>
				<text transform="matrix(1.0447 0 0 1 75.105 146.2524)"><tspan x="0" y="0" class="st7 st8 st9">SOPORTE</tspan><tspan x="101.72" y="65.49" class="st7 st8 st9">TI</tspan></text>
			</g>
			<g>
				<text transform="matrix(1.0447 0 0 1 36.8682 248.3027)"><tspan x="0" y="0" class="st7 st10 st11">windows server dominios directivas </tspan><tspan x="6.68" y="23.39" class="st7 st10 st11">control remoto sharepoint alfresco</tspan><tspan x="-3.36" y="46.77" class="st7 st10 st11">flujos de trabajo usuarios tareas ECM</tspan><tspan x="64.68" y="70.16" class="st7 st10 st11">sistemas corporativos</tspan></text>
			</g>
		</g>
	</g>
	<g class="st3">
		<rect x="793.46" y="222.17" class="st12" width="247.76" height="26.75"/>
		<text transform="matrix(1 0 0 1 822.4162 231.2572)"><tspan x="0" y="0" class="st13 st14 st15">si alguno quiere ser engrandecido sera </tspan><tspan x="128.17" y="17.54" class="st13 st14 st15">vuestro servidor</tspan></text>
		<g>
			<text transform="matrix(1 0 0 1 850.507 164.9984)" class="st16 st8 st17">Kerberos</text>
			<text transform="matrix(1 0 0 1 1014.9182 192.018)" class="st13 st18 st19">sis</text>
		</g>
	</g>
</g>
<g id="Capa_2" class="st0">
	<g class="st3">
		<defs>
			<rect id="SVGID_3_" width="1145.1" height="400"/>
		</defs>
		<clipPath id="SVGID_4_">
			<use xlink:href="#SVGID_3_"  style="overflow:visible;"/>
		</clipPath>
		<polygon class="st20" points="678.74,208.41 555.45,-105.37 493.8,-105.37 617.09,208.41 		"/>
		<polygon class="st21" points="870.36,544.82 747.07,231.04 623.78,231.04 747.07,544.82 		"/>
		<polygon class="st22" points="631.51,329.22 484.33,-45.35 452.19,-45.35 599.37,329.22 		"/>
		<polygon class="st23" points="607.63,410.85 484.33,97.08 389.56,97.08 512.85,410.85 		"/>
		<polygon class="st20" points="104.36,335.94 48.08,190.44 19.95,190.44 76.22,335.94 		"/>
		<polygon class="st21" points="191.82,491.93 135.54,346.43 79.27,346.43 135.54,491.93 		"/>
		<polygon class="st22" points="82.8,391.96 15.62,218.27 0.95,218.27 68.13,391.96 		"/>
		<polygon class="st23" points="71.9,429.81 15.62,284.31 -27.63,284.31 28.64,429.81 		"/>
	</g>
	<polygon class="st24" points="1200,0 613.73,0 771.64,400 1200,400 	"/>
	<g class="st3">
		<g>
			<rect x="99" y="259.2" class="st12" width="366.31" height="43.38"/>
			<text transform="matrix(0.9119 0 0 1 99.0031 273.0372)"><tspan x="0" y="0" class="st13 st14 st25">si alguno quiere ser engrandecido </tspan><tspan x="0" y="28.44" class="st13 st14 st25">sera vuestro servidor</tspan></text>
			<g>
				<text transform="matrix(0.9119 0 0 1 99.0006 166.502)" class="st26 st8 st27">Kerberos</text>
				<text transform="matrix(0.9119 0 0 1 99.0006 210.3097)" class="st13 st18 st28">sis</text>
			</g>
		</g>
		<g>
			<g>
				<text transform="matrix(0.9119 0 0 1 747.903 176.5909)" class="st7 st8 st29">NETWORKING</text>
			</g>
			<g>
				<text transform="matrix(0.9119 0 0 1 863.2682 238.6651)" class="st7 st10 st30">redes</text>
			</g>
			<g>
				<text transform="matrix(0.9119 0 0 1 762.1735 291.3985)"><tspan x="0" y="0" class="st7 st10 st31">cableado de redes access point config</tspan><tspan x="26.74" y="26.31" class="st7 st10 st31">mikrotik repetidores radio+enlace</tspan><tspan x="95.79" y="52.62" class="st7 st10 st31">dhcp enrutamiento </tspan></text>
			</g>
		</g>
	</g>
</g>
<g id="Capa_3">
	<g>
		<g>
			<g>
				<g>
					<g>
						<g>
							<g>
								<linearGradient id="SVGID_5_" gradientUnits="userSpaceOnUse" x1="0" y1="178.4714" x2="1200" y2="178.4714">
									<stop  offset="0" style="stop-color:#FFFFFF"/>
									<stop  offset="0.3506" style="stop-color:#FDFDFD"/>
									<stop  offset="0.7151" style="stop-color:#F3F2F2"/>
									<stop  offset="1" style="stop-color:#E5E4E4"/>
								</linearGradient>
								<rect class="st32" width="1200" height="356.94"/>
							</g>
						</g>
					</g>
				</g>
			</g>
		</g>
	</g>
	<polygon class="st33" points="1200,0 585.62,0 752.78,400 1200,400 	"/>
	<g>
		<g>
			<g>
				<g>
					<g>
						<g>
							<rect class="st12" width="1200" height="356.94"/>
						</g>
					</g>
				</g>
			</g>
		</g>
	</g>
	<g>
		<g>
			<rect x="99.78" y="221.16" class="st12" width="383.87" height="38.71"/>
			<text transform="matrix(1.0709 0 0 1 99.7788 233.5127)"><tspan x="0" y="0" class="st13 st14 st34">si alguno quiere ser engrandecido sera</tspan><tspan x="0" y="25.38" class="st13 st14 st34">vuestro servidor</tspan></text>
			<g>
				<g>
					<text transform="matrix(1.0709 0 0 1 99.7764 138.4463)" class="st35 st8 st36">Kerberos</text>
				</g>
				<text transform="matrix(1.0709 0 0 1 99.7764 177.5381)" class="st13 st18 st37">sis</text>
			</g>
		</g>
		<g>
			<g>
				<text transform="matrix(1.0709 0 0 1 846.0469 147.4482)" class="st7 st8 st38">SUPPORT</text>
			</g>
			<g>
				<text transform="matrix(1.0709 0 0 1 810.7588 202.8408)" class="st7 st10 st39">COMPUTER</text>
			</g>
			<g>
				<text transform="matrix(1.0709 0 0 1 783.4443 249.8975)"><tspan x="0" y="0" class="st7 st10 st40">soporte computadoras laptops hardware</tspan><tspan x="4.16" y="23.48" class="st7 st10 st40">y software instalacion de windows linux,</tspan><tspan x="14.47" y="46.96" class="st7 st10 st40">programas, antivirus recuperacion de </tspan><tspan x="20.35" y="70.44" class="st7 st10 st40">informacion, cambio de pasta termic</tspan><tspan x="57.05" y="93.92" class="st7 st10 st40">expansion de disco, ram etc.</tspan></text>
			</g>
		</g>
	</g>
	<g>
		<defs>
			<rect id="SVGID_6_" width="1200" height="400"/>
		</defs>
		<clipPath id="SVGID_7_">
			<use xlink:href="#SVGID_6_"  style="overflow:visible;"/>
		</clipPath>
		<polygon class="st41" points="681.48,400 516.77,0 496.03,0 660.74,400 		"/>
		<polygon class="st42" points="709.78,165.23 555.73,-208.88 478.7,-208.88 632.75,165.23 		"/>
		<polygon class="st43" points="881.24,510.51 752.04,196.73 622.83,196.73 752.04,510.51 		"/>
		<polygon class="st44" points="657.93,447.01 528.72,133.23 429.4,133.23 558.6,447.01 		"/>
		<polygon class="st41" points="84.29,393.94 13.22,221.33 4.27,221.33 75.35,393.94 		"/>
		<polygon class="st42" points="96.51,292.63 30.03,131.2 -3.2,131.2 63.27,292.63 		"/>
		<polygon class="st43" points="170.5,441.62 114.74,306.22 58.99,306.22 114.74,441.62 		"/>
		<polygon class="st44" points="74.13,414.22 18.38,278.82 -24.48,278.82 31.27,414.22 		"/>
	</g>
</g>
</svg>
