<?xml version="1.0" encoding="utf-8"?>
<!-- Generator: Adobe Illustrator 23.0.5, SVG Export Plug-In . SVG Version: 6.00 Build 0)  -->
<svg version="1.1" id="Capa_1" xmlns="http://www.w3.org/2000/svg" xmlns:xlink="http://www.w3.org/1999/xlink" x="0px" y="0px"
	 viewBox="0 0 1200 400" style="enable-background:new 0 0 1200 400;" xml:space="preserve">
<style type="text/css">
	.st0{opacity:0.4;}
	.st1{fill:#436F60;}
	.st2{clip-path:url(#SVGID_2_);fill:#79B3A1;}
	.st3{clip-path:url(#SVGID_2_);fill:#67AB97;}
	.st4{clip-path:url(#SVGID_2_);fill:#5A9582;}
	.st5{fill:#FFFFFF;}
	.st6{font-family:'Raleway-Bold';}
	.st7{font-size:54.5724px;}
	.st8{font-family:'Raleway-Regular';}
	.st9{font-size:19.4895px;}
	.st10{fill:none;}
	.st11{fill:#333333;}
	.st12{font-family:'Raleway-ExtraLight';}
	.st13{font-size:12.4464px;}
	.st14{fill:#79B3A1;}
	.st15{font-size:43.5624px;}
	.st16{font-family:'Raleway-Light';}
	.st17{font-size:22.5009px;}
</style>
<g class="st0">
	<g>
		<g>
			<g>
			</g>
		</g>
	</g>
</g>
<g class="st0">
	<g>
		<g>
			<g>
			</g>
		</g>
	</g>
</g>
<polygon class="st1" points="0,400 607.83,400 444.11,-1.62 0,0.58 "/>
<g>
	<defs>
		
			<rect id="SVGID_1_" x="0" y="-1.62" transform="matrix(-1 -1.224647e-16 1.224647e-16 -1 1201.2999 396.5274)" width="1201.3" height="399.77"/>
	</defs>
	<clipPath id="SVGID_2_">
		<use xlink:href="#SVGID_1_"  style="overflow:visible;"/>
	</clipPath>
	<polygon class="st2" points="772.53,363.94 643.18,50.16 578.51,50.16 707.86,363.94 	"/>
	<polygon class="st3" points="722.27,479.98 592.93,166.2 463.58,166.2 592.93,479.98 	"/>
	<polygon class="st3" points="592.93,147 463.58,-166.78 429.86,-166.78 559.21,147 	"/>
	<polygon class="st4" points="501.83,86.46 372.48,-227.32 273.05,-227.32 402.4,86.46 	"/>
	<polygon class="st2" points="1268.97,228.03 1202.88,67.7 1169.84,67.7 1235.93,228.03 	"/>
	<polygon class="st3" points="1243.29,287.31 1177.21,126.99 1111.12,126.99 1177.21,287.31 	"/>
	<polygon class="st3" points="1177.21,117.18 1111.12,-43.14 1093.89,-43.14 1159.98,117.18 	"/>
	<polygon class="st4" points="1130.66,86.25 1064.57,-74.08 1013.77,-74.08 1079.85,86.25 	"/>
</g>
<g>
	<g>
		<g>
		</g>
	</g>
	<g>
		<g>
			<text transform="matrix(1.0447 0 0 1 75.105 146.2524)"><tspan x="0" y="0" class="st5 st6 st7">SOPORTE</tspan><tspan x="101.72" y="65.49" class="st5 st6 st7">TI</tspan></text>
		</g>
		<g>
			<text transform="matrix(1.0447 0 0 1 36.8682 248.3027)"><tspan x="0" y="0" class="st5 st8 st9">windows server dominios directivas </tspan><tspan x="6.68" y="23.39" class="st5 st8 st9">control remoto sharepoint alfresco</tspan><tspan x="-3.36" y="46.77" class="st5 st8 st9">flujos de trabajo usuarios tareas ECM</tspan><tspan x="64.68" y="70.16" class="st5 st8 st9">sistemas corporativos</tspan></text>
		</g>
	</g>
</g>
<g>
	<rect x="793.46" y="222.17" class="st10" width="247.76" height="26.75"/>
	<text transform="matrix(1 0 0 1 822.4162 231.2572)"><tspan x="0" y="0" class="st11 st12 st13">si alguno quiere ser engrandecido sera </tspan><tspan x="128.17" y="17.54" class="st11 st12 st13">vuestro servidor</tspan></text>
	<g>
		<text transform="matrix(1 0 0 1 850.507 164.9984)" class="st14 st6 st15">Kerberos</text>
		<text transform="matrix(1 0 0 1 1014.9182 192.018)" class="st11 st16 st17">sis</text>
	</g>
</g>
</svg>
