<?xml version="1.0" encoding="utf-8"?>
<!-- Generator: Adobe Illustrator 23.0.5, SVG Export Plug-In . SVG Version: 6.00 Build 0)  -->
<svg version="1.1" id="Capa_1" xmlns="http://www.w3.org/2000/svg" xmlns:xlink="http://www.w3.org/1999/xlink" x="0px" y="0px"
	 viewBox="0 0 85.04 85.04" style="enable-background:new 0 0 85.04 85.04;" xml:space="preserve">
<style type="text/css">
	.st0{fill:#FFFFFF;}
</style>
<g>
	<path class="st0" d="M15.48,2.17c0.19,0.51,0.6,1.07,0.5,1.52c-0.14,0.63-0.55,1.49-1.05,1.67c-0.5,0.18-1.81-0.38-1.8-0.59
		c0.01-0.3,0.06-0.61,0.13-0.91C13.51,2.85,14.45,2.17,15.48,2.17L15.48,2.17z"/>
	<path class="st0" d="M43.49,70.51c-13.46,0.02-25.02-9.26-27.7-22.36c-0.32-1.59-1.01-2.1-2.45-2.5c-2.33-0.66-3.6-3.13-3.04-5.33
		c0.57-2.25,2.81-4.09,5.05-3.53c2.67,0.66,3.92-0.7,4.84-2.65c1.04-2.22,0.7-4.34-0.95-6.27c-1.07-1.25-2.33-2.55-2.82-4.05
		c-0.97-2.96,0.52-5.96,3.18-7.4c2.72-1.48,6.08-0.86,8.2,1.54c0.5,0.56,0.85,1.26,1.38,1.77c1.77,1.69,3.86,1.99,5.95,0.82
		c1.93-1.08,2.99-2.7,2.4-5.15c-0.72-2.98,0.54-5.19,3.15-5.98c2.44-0.73,4.56,0.59,5.76,3.2c0.4,0.87,1.51,1.8,2.44,1.99
		c14.08,2.81,24.09,16.1,22.69,30.29C70.13,59.42,58,70.49,43.49,70.51z M29.34,38.59c0,5.07-0.14,9.77,0.04,14.45
		c0.17,4.13,4.08,7.52,7.92,6.9c0-3.82,0-7.7,0-12.35c3.82,3.88,7.04,7.26,10.38,10.52c3.3,3.22,8.09,2.99,10.79-0.62
		c-3.8-3.33-7.64-6.69-11.72-10.27c1.78-1.33,2.54-1.86,3.26-2.45c3.32-2.69,5.54-6.02,4.63-10.42c-0.94-4.56-3.85-8.17-8.45-8.75
		c-5.5-0.69-11.16-0.16-16.74-0.16c0.05,3.3,1.63,6.11,4.35,6.74c3.13,0.73,6.43,0.74,9.63,1.21c1,0.15,2.33,0.53,2.81,1.27
		c1.29,1.96,0.03,3.9-2.43,3.93C39.04,38.63,34.27,38.59,29.34,38.59z"/>
	<path class="st0" d="M36.18,14.93c-0.12,2.23-1.31,3.52-3.33,3.56c-2.03,0.04-3.4-1.29-3.44-3.33c-0.04-2.04,1.16-3.36,3.31-3.39
		C34.86,11.74,35.94,12.98,36.18,14.93z"/>
	<path class="st0" d="M11.21,30.63c0.28-1.98,1.41-3.24,3.5-3.17c2.06,0.07,3.34,1.34,3.28,3.43c-0.06,2.09-1.47,3.34-3.47,3.29
		C12.52,34.14,11.35,32.81,11.21,30.63z"/>
	<path class="st0" d="M43.72,3.98c-1.81,1.05-2.85,2.14-3.8,2.06c-0.77-0.06-2.03-1.57-1.97-2.35c0.06-0.83,1.43-2.18,2.21-2.17
		C41.11,1.53,42.04,2.74,43.72,3.98z"/>
	<path class="st0" d="M5.14,22.85c1.22,1.67,2.44,2.61,2.45,3.57c0.01,0.77-1.4,2.14-2.23,2.19c-0.79,0.05-2.3-1.24-2.34-2.01
		C2.96,25.63,4.08,24.6,5.14,22.85z"/>
	<path class="st0" d="M19.13,13.85c-1.8,0.99-2.86,2.05-3.79,1.94c-0.81-0.09-1.48-1.49-2.21-2.31c0.91-0.74,1.76-1.95,2.75-2.07
		C16.63,11.32,17.55,12.6,19.13,13.85z"/>
	<path class="st0" d="M31.39,3.68c-1.01,0.65-1.67,1.41-2.27,1.36c-0.56-0.05-1.06-0.95-1.58-1.48c0.59-0.57,1.13-1.48,1.8-1.59
		C29.82,1.89,30.48,2.88,31.39,3.68z"/>
</g>
</svg>
